<mxfile host="app.diagrams.net" modified="2021-07-09T07:00:21.286Z" agent="5.0 (Macintosh; Intel Mac OS X 10_13_6) AppleWebKit/605.1.15 (KHTML, like Gecko) Version/13.1.2 Safari/605.1.15" etag="ZRiDGqR0T3zubayHMrlb" version="14.8.0" type="github">
  <diagram id="o_1I3ubgvzXFLfi6ImCg" name="Page-1">
    <mxGraphModel dx="559" dy="403" grid="1" gridSize="10" guides="1" tooltips="1" connect="1" arrows="1" fold="1" page="1" pageScale="1" pageWidth="827" pageHeight="1169" math="0" shadow="0">
      <root>
        <mxCell id="0" />
        <mxCell id="1" parent="0" />
        <mxCell id="MfAquZXezVMeiXPjAQ_--3" value="前后交互&lt;br&gt;weex交互" style="shape=hexagon;strokeWidth=4;html=1;fillColor=#F5AB50;strokeColor=#ffffff;shadow=0;fontSize=10;fontColor=#FFFFFF;align=center;fontStyle=0;whiteSpace=wrap;spacing=10;rounded=0;" vertex="1" parent="1">
          <mxGeometry x="360" y="324" width="112" height="102" as="geometry" />
        </mxCell>
        <mxCell id="MfAquZXezVMeiXPjAQ_--4" value="页面开发" style="shape=hexagon;strokeWidth=4;html=1;fillColor=#E85642;strokeColor=#ffffff;shadow=0;fontSize=10;fontColor=#FFFFFF;align=center;fontStyle=0;whiteSpace=wrap;spacing=10;rounded=0;" vertex="1" parent="1">
          <mxGeometry x="360" y="426" width="112" height="102" as="geometry" />
        </mxCell>
        <mxCell id="MfAquZXezVMeiXPjAQ_--5" value="&lt;font style=&quot;font-size: 18px&quot;&gt;移动实践&lt;/font&gt;" style="shape=hexagon;strokeWidth=4;html=1;fillColor=#12AAB5;strokeColor=#ffffff;shadow=0;fontSize=10;fontColor=#FFFFFF;align=center;fontStyle=0;whiteSpace=wrap;spacing=10;rounded=0;" vertex="1" parent="1">
          <mxGeometry x="444" y="375" width="112" height="102" as="geometry" />
        </mxCell>
        <mxCell id="MfAquZXezVMeiXPjAQ_--6" value="目录介绍" style="shape=hexagon;strokeWidth=4;html=1;fillColor=#1699D3;strokeColor=#ffffff;shadow=0;fontSize=10;fontColor=#FFFFFF;align=center;fontStyle=0;whiteSpace=wrap;spacing=10;rounded=0;" vertex="1" parent="1">
          <mxGeometry x="444" y="273" width="112" height="102" as="geometry" />
        </mxCell>
        <mxCell id="MfAquZXezVMeiXPjAQ_--7" value="快速启动" style="shape=hexagon;strokeWidth=4;html=1;fillColor=#736CA8;strokeColor=#ffffff;shadow=0;fontSize=10;fontColor=#FFFFFF;align=center;fontStyle=0;whiteSpace=wrap;spacing=10;rounded=0;" vertex="1" parent="1">
          <mxGeometry x="528" y="324" width="112" height="102" as="geometry" />
        </mxCell>
        <mxCell id="MfAquZXezVMeiXPjAQ_--8" value="开发流程介绍" style="shape=hexagon;strokeWidth=4;html=1;fillColor=#2F5B7C;strokeColor=#ffffff;shadow=0;fontSize=10;fontColor=#FFFFFF;align=center;fontStyle=0;whiteSpace=wrap;spacing=10;rounded=0;" vertex="1" parent="1">
          <mxGeometry x="528" y="426" width="112" height="102" as="geometry" />
        </mxCell>
        <mxCell id="MfAquZXezVMeiXPjAQ_--9" value="新增模块" style="shape=hexagon;strokeWidth=4;html=1;fillColor=#777777;strokeColor=#ffffff;shadow=0;fontSize=10;fontColor=#FFFFFF;align=center;fontStyle=0;whiteSpace=wrap;spacing=10;rounded=0;" vertex="1" parent="1">
          <mxGeometry x="444" y="477" width="112" height="102" as="geometry" />
        </mxCell>
      </root>
    </mxGraphModel>
  </diagram>
</mxfile>
